# xmcd CD database file
#
# Track frame offsets:
#	150
#	23725
#	51300
#	81875
#	108410
#	114485
#	144570
#	178982
#	205695
#	241460
#	265105
#	296800
#
# Disc length: 4339 seconds
#
# Revision: 5
# Processed by: cddbd v1.4PL0 Copyright (c) Steve Scherf et al.
# Submitted via: CDex 1.40Release
#
DISCID=b010f10c
DTITLE=Natacha Atlas - Diaspora
DYEAR=1995
DGENRE=Ethno Pop
TTITLE0=Iskanderia
TTITLE1=Leysh Nat'arak
TTITLE2=Diaspora
TTITLE3=Yalla Chant
TTITLE4=Alhambra Pt 1
TTITLE5=Duden
TTITLE6=Feres
TTITLE7=Fun Does Not Exist
TTITLE8=Dub Yalil
TTITLE9=Iskanderia (Atlas Zamalek)
TTITLE10=Diaspora (Baloon Theatre Mix)
TTITLE11=Fun Does Not Exist (Dolmus Mix)
EXTD=YEAR: 1995
EXTT0=
EXTT1=
EXTT2=
EXTT3=
EXTT4=
EXTT5=
EXTT6=
EXTT7=
EXTT8=
EXTT9=
EXTT10=
EXTT11=
PLAYORDER=
